<svg xmlns="http://www.w3.org/2000/svg" xmlns:xlink="http://www.w3.org/1999/xlink" xmlns:inkscape="http://www.inkscape.org/namespaces/inkscape" version="1.1" width="228.52375" height="162.16126" viewBox="0 0 228.52375 162.16126">
<defs>
<clipPath id="clip_1">
<path transform="matrix(.006,0,0,-.006,47.70816,152.41439)" d="M-1016-351H1660V1068H-1016Z"/>
</clipPath>
<clipPath id="clip_2">
<path transform="matrix(.006,0,0,-.006,117.43375,152.33626)" d="M-1016-351H1660V1068H-1016Z"/>
</clipPath>
<clipPath id="clip_3">
<path transform="matrix(.006,0,0,-.006,172.15933,152.41439)" d="M-1016-351H1660V1068H-1016Z"/>
</clipPath>
<clipPath id="clip_4">
<path transform="matrix(1,0,0,-1,0,162.16126)" d="M33.54375 21.2H221.32375V152.68H33.54375Z"/>
</clipPath>
<clipPath id="clip_5">
<path transform="matrix(1,0,0,-1,0,162.16126)" d="M33.54375 21.2H221.32375V152.68H33.54375Z"/>
</clipPath>
<clipPath id="clip_6">
<path transform="matrix(1,0,0,-1,0,162.16126)" d="M33.54375 21.2H221.32375V152.68H33.54375Z"/>
</clipPath>
<clipPath id="clip_7">
<path transform="matrix(1,0,0,-1,0,162.16126)" d="M33.54375 21.2H221.32375V152.68H33.54375Z"/>
</clipPath>
<clipPath id="clip_8">
<path transform="matrix(1,0,0,-1,0,162.16126)" d="M33.54375 21.2H221.32375V152.68H33.54375Z"/>
</clipPath>
<clipPath id="clip_9">
<path transform="matrix(1,0,0,-1,0,162.16126)" d="M33.54375 21.2H221.32375V152.68H33.54375Z"/>
</clipPath>
<clipPath id="clip_10">
<path transform="matrix(1,0,0,-1,0,162.16126)" d="M33.54375 21.2H221.32375V152.68H33.54375Z"/>
</clipPath>
<clipPath id="clip_11">
<path transform="matrix(1,0,0,-1,0,162.16126)" d="M33.54375 21.2H221.32375V152.68H33.54375Z"/>
</clipPath>
<clipPath id="clip_12">
<path transform="matrix(1,0,0,-1,0,162.16126)" d="M33.54375 21.2H221.32375V152.68H33.54375Z"/>
</clipPath>
<clipPath id="clip_13">
<path transform="matrix(1,0,0,-1,0,162.16126)" d="M33.54375 21.2H221.32375V152.68H33.54375Z"/>
</clipPath>
<clipPath id="clip_14">
<path transform="matrix(1,0,0,-1,0,162.16126)" d="M33.54375 21.2H221.32375V152.68H33.54375Z"/>
</clipPath>
<clipPath id="clip_15">
<path transform="matrix(1,0,0,-1,0,162.16126)" d="M33.54375 21.2H221.32375V152.68H33.54375Z"/>
</clipPath>
<clipPath id="clip_16">
<path transform="matrix(1,0,0,-1,0,162.16126)" d="M33.54375 21.2H221.32375V152.68H33.54375Z"/>
</clipPath>
<clipPath id="clip_17">
<path transform="matrix(1,0,0,-1,75.27264,132.1521)" d="M-7.5-7.5H7.5V7.5H-7.5Z"/>
</clipPath>
<clipPath id="clip_18">
<path transform="matrix(1,0,0,-1,138.49823,97.57286)" d="M-7.5-7.5H7.5V7.5H-7.5Z"/>
</clipPath>
<clipPath id="clip_19">
<path transform="matrix(1,0,0,-1,201.72382,44.98086)" d="M-7.5-7.5H7.5V7.5H-7.5Z"/>
</clipPath>
</defs>
<path transform="matrix(1,0,0,-1,0,162.16126)" d="M0 0H228.52375V162.16126H0Z" fill="#ffffff"/>
<path transform="matrix(1,0,0,-1,0,162.16126)" d="M33.54375 21.2H221.32375V152.68H33.54375Z" fill="#ffffff"/>
<path transform="matrix(1,0,0,-1,0,162.16126)" d="M64.20816 21.2V17.7"/>
<path transform="matrix(1,0,0,-1,0,162.16126)" stroke-width=".8" stroke-linecap="butt" stroke-linejoin="round" fill="none" stroke="#000000" d="M64.20816 21.2V17.7"/>
<text xml:space="preserve" transform="matrix(1 0 -0 1 47.70816 152.96126)" font-size="4.2" font-family="DejaVuSans"><tspan y=".4375" x="3.6123048 6.2844727 7.619531">0.5</tspan></text>
<text xml:space="preserve" transform="matrix(1 0 -0 1 47.70816 152.96126)" font-size="6" font-family="DejaVuSans"><tspan y="-.546875" x="10.455762 12.620801 17.240918 21.409863 26.132519 27.90205">-DROID</tspan></text>
<g clip-path="url(#clip_1)">
<path transform="matrix(.006,0,0,-.006,47.70816,152.41439)" d="M91 547H615L598 457H529L463 121C459 97 460 80 466 70 472 60 483 55 501 55 506 55 512 55 520 57 527 57 532 58 534 58L521-6C509-10 497-13 485-15 472-17 460-18 448-18 408-18 383-7 373 13 362 34 362 73 374 131L437 457H235L146 0H55L144 457H74L91 547Z"/>
</g>
<path transform="matrix(1,0,0,-1,0,162.16126)" d="M127.43375 21.2V17.7"/>
<path transform="matrix(1,0,0,-1,0,162.16126)" stroke-width=".8" stroke-linecap="butt" stroke-linejoin="round" fill="none" stroke="#000000" d="M127.43375 21.2V17.7"/>
<text xml:space="preserve" transform="matrix(1 0 -0 1 117.43375 152.96126)" font-size="4.2" font-family="DejaVuSans"><tspan y=".359375" x="3.6123048 6.2844727 7.619531">0.5</tspan></text>
<text xml:space="preserve" transform="matrix(1 0 -0 1 117.43375 152.96126)" font-size="6" font-family="DejaVuSans"><tspan y="-.625" x="10.455762 12.620801 16.071972">-FT</tspan></text>
<g clip-path="url(#clip_2)">
<path transform="matrix(.006,0,0,-.006,117.43375,152.33626)" d="M91 547H615L598 457H529L463 121C459 97 460 80 466 70 472 60 483 55 501 55 506 55 512 55 520 57 527 57 532 58 534 58L521-6C509-10 497-13 485-15 472-17 460-18 448-18 408-18 383-7 373 13 362 34 362 73 374 131L437 457H235L146 0H55L144 457H74L91 547Z"/>
</g>
<path transform="matrix(1,0,0,-1,0,162.16126)" d="M190.65933 21.2V17.7"/>
<path transform="matrix(1,0,0,-1,0,162.16126)" stroke-width=".8" stroke-linecap="butt" stroke-linejoin="round" fill="none" stroke="#000000" d="M190.65933 21.2V17.7"/>
<text xml:space="preserve" transform="matrix(1 0 -0 1 172.15933 152.96126)" font-size="4.2" font-family="DejaVuSans"><tspan y=".4375" x="3.6123048 6.2844727 7.619531">0.5</tspan></text>
<text xml:space="preserve" transform="matrix(1 0 -0 1 172.15933 152.96126)" font-size="6" font-family="DejaVuSans"><tspan y="-.546875" x="10.455762 12.620801 16.789746 20.481152 24.289746 26.642285 30.33369 34.025098">-ReSteer</tspan></text>
<g clip-path="url(#clip_3)">
<path transform="matrix(.006,0,0,-.006,172.15933,152.41439)" d="M91 547H615L598 457H529L463 121C459 97 460 80 466 70 472 60 483 55 501 55 506 55 512 55 520 57 527 57 532 58 534 58L521-6C509-10 497-13 485-15 472-17 460-18 448-18 408-18 383-7 373 13 362 34 362 73 374 131L437 457H235L146 0H55L144 457H74L91 547Z"/>
</g>
<g clip-path="url(#clip_4)">
<path transform="matrix(1,0,0,-1,0,162.16126)" stroke-width=".5" stroke-linecap="butt" stroke-dasharray="1.85,.8" stroke-linejoin="round" fill="none" stroke="#b0b0b0" stroke-opacity=".3" d="M33.54375 21.2H221.32375"/>
</g>
<path transform="matrix(1,0,0,-1,0,162.16126)" d="M33.54375 21.2H30.04375"/>
<path transform="matrix(1,0,0,-1,0,162.16126)" stroke-width=".8" stroke-linecap="butt" stroke-linejoin="round" fill="none" stroke="#000000" d="M33.54375 21.2H30.04375"/>
<text xml:space="preserve" transform="matrix(1 0 -0 1 17.0125 143.24251)" font-size="6" font-family="DejaVuSans"><tspan y="0" x="0 3.8160003 5.7240006">0.0</tspan></text>
<g clip-path="url(#clip_5)">
<path transform="matrix(1,0,0,-1,0,162.16126)" stroke-width=".5" stroke-linecap="butt" stroke-dasharray="1.85,.8" stroke-linejoin="round" fill="none" stroke="#b0b0b0" stroke-opacity=".3" d="M33.54375 47.496H221.32375"/>
</g>
<path transform="matrix(1,0,0,-1,0,162.16126)" d="M33.54375 47.496H30.04375"/>
<path transform="matrix(1,0,0,-1,0,162.16126)" stroke-width=".8" stroke-linecap="butt" stroke-linejoin="round" fill="none" stroke="#000000" d="M33.54375 47.496H30.04375"/>
<text xml:space="preserve" transform="matrix(1 0 -0 1 17.0125 116.9465)" font-size="6" font-family="DejaVuSans"><tspan y="0" x="0 3.8160003 5.7240006">0.2</tspan></text>
<g clip-path="url(#clip_6)">
<path transform="matrix(1,0,0,-1,0,162.16126)" stroke-width=".5" stroke-linecap="butt" stroke-dasharray="1.85,.8" stroke-linejoin="round" fill="none" stroke="#b0b0b0" stroke-opacity=".3" d="M33.54375 73.792H221.32375"/>
</g>
<path transform="matrix(1,0,0,-1,0,162.16126)" d="M33.54375 73.792H30.04375"/>
<path transform="matrix(1,0,0,-1,0,162.16126)" stroke-width=".8" stroke-linecap="butt" stroke-linejoin="round" fill="none" stroke="#000000" d="M33.54375 73.792H30.04375"/>
<text xml:space="preserve" transform="matrix(1 0 -0 1 17.0125 90.650508)" font-size="6" font-family="DejaVuSans"><tspan y="0" x="0 3.8160003 5.7240006">0.4</tspan></text>
<g clip-path="url(#clip_7)">
<path transform="matrix(1,0,0,-1,0,162.16126)" stroke-width=".5" stroke-linecap="butt" stroke-dasharray="1.85,.8" stroke-linejoin="round" fill="none" stroke="#b0b0b0" stroke-opacity=".3" d="M33.54375 100.088H221.32375"/>
</g>
<path transform="matrix(1,0,0,-1,0,162.16126)" d="M33.54375 100.088H30.04375"/>
<path transform="matrix(1,0,0,-1,0,162.16126)" stroke-width=".8" stroke-linecap="butt" stroke-linejoin="round" fill="none" stroke="#000000" d="M33.54375 100.088H30.04375"/>
<text xml:space="preserve" transform="matrix(1 0 -0 1 17.0125 64.35451)" font-size="6" font-family="DejaVuSans"><tspan y="0" x="0 3.8160003 5.7240006">0.6</tspan></text>
<g clip-path="url(#clip_8)">
<path transform="matrix(1,0,0,-1,0,162.16126)" stroke-width=".5" stroke-linecap="butt" stroke-dasharray="1.85,.8" stroke-linejoin="round" fill="none" stroke="#b0b0b0" stroke-opacity=".3" d="M33.54375 126.384H221.32375"/>
</g>
<path transform="matrix(1,0,0,-1,0,162.16126)" d="M33.54375 126.384H30.04375"/>
<path transform="matrix(1,0,0,-1,0,162.16126)" stroke-width=".8" stroke-linecap="butt" stroke-linejoin="round" fill="none" stroke="#000000" d="M33.54375 126.384H30.04375"/>
<text xml:space="preserve" transform="matrix(1 0 -0 1 17.0125 38.058504)" font-size="6" font-family="DejaVuSans"><tspan y="0" x="0 3.8160003 5.7240006">0.8</tspan></text>
<g clip-path="url(#clip_9)">
<path transform="matrix(1,0,0,-1,0,162.16126)" stroke-width=".5" stroke-linecap="butt" stroke-dasharray="1.85,.8" stroke-linejoin="round" fill="none" stroke="#b0b0b0" stroke-opacity=".3" d="M33.54375 152.68H221.32375"/>
</g>
<path transform="matrix(1,0,0,-1,0,162.16126)" d="M33.54375 152.68H30.04375"/>
<path transform="matrix(1,0,0,-1,0,162.16126)" stroke-width=".8" stroke-linecap="butt" stroke-linejoin="round" fill="none" stroke="#000000" d="M33.54375 152.68H30.04375"/>
<text xml:space="preserve" transform="matrix(1 0 -0 1 17.0125 11.762512)" font-size="6" font-family="DejaVuSans"><tspan y="0" x="0 3.8160003 5.7240006">1.0</tspan></text>
<text xml:space="preserve" transform="matrix(0 -1 1 0 11.7625 97.55719)" font-size="6" font-family="DejaVuSans"><tspan y="0" x="0 4.32 8.592001 12.150002 15.708002 19.776003 23.346003 26.916003 29.004002 33.624 37.674 40.542">Success Rate</tspan></text>
<g clip-path="url(#clip_10)">
<path transform="matrix(1,0,0,-1,0,162.16126)" d="M42.079206 21.2H64.20816V48.8108H42.079206Z" fill="#0474ba" fill-opacity=".6"/>
</g>
<g clip-path="url(#clip_11)">
<path transform="matrix(1,0,0,-1,0,162.16126)" d="M105.304798 21.2H127.43375V139.532H105.304798Z" fill="#0474ba" fill-opacity=".6"/>
</g>
<g clip-path="url(#clip_12)">
<path transform="matrix(1,0,0,-1,0,162.16126)" d="M168.53038 21.2H190.65933V132.958H168.53038Z" fill="#0474ba" fill-opacity=".6"/>
</g>
<g clip-path="url(#clip_13)">
<path transform="matrix(1,0,0,-1,0,162.16126)" d="M64.20816 21.2H86.33712V30.00916H64.20816Z" fill="#f17720" fill-opacity=".6"/>
</g>
<g clip-path="url(#clip_14)">
<path transform="matrix(1,0,0,-1,0,162.16126)" d="M127.43375 21.2H149.56272V64.5884H127.43375Z" fill="#f17720" fill-opacity=".6"/>
</g>
<g clip-path="url(#clip_15)">
<path transform="matrix(1,0,0,-1,0,162.16126)" d="M190.65933 21.2H212.7883V117.1804H190.65933Z" fill="#f17720" fill-opacity=".6"/>
</g>
<path transform="matrix(1,0,0,-1,0,162.16126)" stroke-width=".8" stroke-linecap="square" stroke-miterlimit="10" stroke-linejoin="miter" fill="none" stroke="#000000" d="M33.54375 21.2V152.68"/>
<path transform="matrix(1,0,0,-1,0,162.16126)" stroke-width=".8" stroke-linecap="square" stroke-miterlimit="10" stroke-linejoin="miter" fill="none" stroke="#000000" d="M33.54375 21.2H221.32375"/>
<g clip-path="url(#clip_16)">
<path transform="matrix(1,0,0,-1,0,162.16126)" stroke-width="2.5" stroke-linecap="square" stroke-linejoin="round" fill="none" stroke="#f17720" d="M75.27264 30.00916 138.49823 64.5884 201.72382 117.1804"/>
<g clip-path="url(#clip_17)">
<path transform="matrix(1,0,0,-1,75.27264,132.1521)" d="M0-2.5C.663008-2.5 1.29895-2.236584 1.767767-1.767767 2.236584-1.29895 2.5-.663008 2.5 0 2.5 .663008 2.236584 1.29895 1.767767 1.767767 1.29895 2.236584 .663008 2.5 0 2.5-.663008 2.5-1.29895 2.236584-1.767767 1.767767-2.236584 1.29895-2.5 .663008-2.5 0-2.5-.663008-2.236584-1.29895-1.767767-1.767767-1.29895-2.236584-.663008-2.5 0-2.5Z" fill="#f17720"/>
<path transform="matrix(1,0,0,-1,75.27264,132.1521)" stroke-width="1" stroke-linecap="butt" stroke-linejoin="round" fill="none" stroke="#f17720" d="M0-2.5C.663008-2.5 1.29895-2.236584 1.767767-1.767767 2.236584-1.29895 2.5-.663008 2.5 0 2.5 .663008 2.236584 1.29895 1.767767 1.767767 1.29895 2.236584 .663008 2.5 0 2.5-.663008 2.5-1.29895 2.236584-1.767767 1.767767-2.236584 1.29895-2.5 .663008-2.5 0-2.5-.663008-2.236584-1.29895-1.767767-1.767767-1.29895-2.236584-.663008-2.5 0-2.5Z"/>
</g>
<g clip-path="url(#clip_18)">
<path transform="matrix(1,0,0,-1,138.49823,97.57286)" d="M0-2.5C.663008-2.5 1.29895-2.236584 1.767767-1.767767 2.236584-1.29895 2.5-.663008 2.5 0 2.5 .663008 2.236584 1.29895 1.767767 1.767767 1.29895 2.236584 .663008 2.5 0 2.5-.663008 2.5-1.29895 2.236584-1.767767 1.767767-2.236584 1.29895-2.5 .663008-2.5 0-2.5-.663008-2.236584-1.29895-1.767767-1.767767-1.29895-2.236584-.663008-2.5 0-2.5Z" fill="#f17720"/>
<path transform="matrix(1,0,0,-1,138.49823,97.57286)" stroke-width="1" stroke-linecap="butt" stroke-linejoin="round" fill="none" stroke="#f17720" d="M0-2.5C.663008-2.5 1.29895-2.236584 1.767767-1.767767 2.236584-1.29895 2.5-.663008 2.5 0 2.5 .663008 2.236584 1.29895 1.767767 1.767767 1.29895 2.236584 .663008 2.5 0 2.5-.663008 2.5-1.29895 2.236584-1.767767 1.767767-2.236584 1.29895-2.5 .663008-2.5 0-2.5-.663008-2.236584-1.29895-1.767767-1.767767-1.29895-2.236584-.663008-2.5 0-2.5Z"/>
</g>
<g clip-path="url(#clip_19)">
<path transform="matrix(1,0,0,-1,201.72382,44.98086)" d="M0-2.5C.663008-2.5 1.29895-2.236584 1.767767-1.767767 2.236584-1.29895 2.5-.663008 2.5 0 2.5 .663008 2.236584 1.29895 1.767767 1.767767 1.29895 2.236584 .663008 2.5 0 2.5-.663008 2.5-1.29895 2.236584-1.767767 1.767767-2.236584 1.29895-2.5 .663008-2.5 0-2.5-.663008-2.236584-1.29895-1.767767-1.767767-1.29895-2.236584-.663008-2.5 0-2.5Z" fill="#f17720"/>
<path transform="matrix(1,0,0,-1,201.72382,44.98086)" stroke-width="1" stroke-linecap="butt" stroke-linejoin="round" fill="none" stroke="#f17720" d="M0-2.5C.663008-2.5 1.29895-2.236584 1.767767-1.767767 2.236584-1.29895 2.5-.663008 2.5 0 2.5 .663008 2.236584 1.29895 1.767767 1.767767 1.29895 2.236584 .663008 2.5 0 2.5-.663008 2.5-1.29895 2.236584-1.767767 1.767767-2.236584 1.29895-2.5 .663008-2.5 0-2.5-.663008-2.236584-1.29895-1.767767-1.767767-1.29895-2.236584-.663008-2.5 0-2.5Z"/>
</g>
</g>
<text xml:space="preserve" transform="matrix(1 0 -0 1 45.745248 107.49866)" font-size="6" font-family="DejaVuSans"><tspan y="0" x="0 4.176 6.4560005 10.632">0.21</tspan></text>
<text xml:space="preserve" transform="matrix(1 0 -0 1 108.97083 16.77745)" font-size="6" font-family="DejaVuSans"><tspan y="0" x="0 4.176 6.4560005 10.632">0.90</tspan></text>
<text xml:space="preserve" transform="matrix(1 0 -0 1 172.19643 23.351456)" font-size="6" font-family="DejaVuSans"><tspan y="0" x="0 4.176 6.4560005 10.632">0.85</tspan></text>
<text xml:space="preserve" transform="matrix(1 0 -0 1 67.8742 126.30029)" font-size="6" font-family="DejaVuSans"><tspan y="0" x="0 4.176 6.4560005 10.632">0.07</tspan></text>
<text xml:space="preserve" transform="matrix(1 0 -0 1 131.0998 91.721057)" font-size="6" font-family="DejaVuSans"><tspan y="0" x="0 4.176 6.4560005 10.632">0.33</tspan></text>
<text xml:space="preserve" transform="matrix(1 0 -0 1 194.32538 39.12905)" font-size="6" font-family="DejaVuSans"><tspan y="0" x="0 4.176 6.4560005 10.632">0.73</tspan></text>
<path transform="matrix(1,0,0,-1,0,162.16126)" d="M38.94375 142.7175H46.14375V146.9175H38.94375Z" fill="#0474ba" fill-opacity=".6"/>
<text xml:space="preserve" transform="matrix(1 0 -0 1 49.14375 19.443757)" font-size="6" font-family="DejaVuSans"><tspan y="0" x="0 3.8100005 5.4780008 9.282001 13.092001 14.760001 18.45 20.358002 23.039628 26.717627 29.843626 33.317628 35.225629 39.03563">Single Task SR</tspan></text>
<path transform="matrix(1,0,0,-1,0,162.16126)" d="M38.94375 133.905H46.14375V138.105H38.94375Z" fill="#f17720" fill-opacity=".6"/>
<text xml:space="preserve" transform="matrix(1 0 -0 1 49.14375 28.256257)" font-size="6" font-family="DejaVuSans"><tspan y="0" x="0 3.8100005 6.1620008 9.852001 13.542002 16.008002 19.686 23.496003 25.164002 26.832 28.5 30.852002">Steerability</tspan></text>
</svg>
